<svg width="26" height="32" viewBox="0 0 26 32" fill="none" xmlns="http://www.w3.org/2000/svg">
<path d="M13.1119 2.59338e-05C11.7463 0.255738 6.7105 2.98333 0.309119 6.73377L3.80854 13.3823C8.20416 10.953 11.7889 9.24827 13.1119 9.24827C14.4348 9.24827 18.0623 10.9956 22.5006 13.4249L26 6.73377C19.5559 2.98333 14.5202 0.255738 13.1119 2.59338e-05Z" fill="#576363"/>
<path d="M13.1119 13.0839C12.1304 13.2544 9.39914 14.6608 5.64366 16.7491L5.60099 16.7918L13.1546 31.1116L13.7521 30.0888L20.7083 16.8344C20.6656 16.7918 20.6229 16.7491 20.5802 16.7491C16.8247 14.6182 14.0935 13.2544 13.1119 13.0839Z" fill="#576363"/>
<path d="M22.5006 13.4675L26 6.77641C19.6413 3.02597 14.6055 0.298372 13.1972 4.10159e-05L13.1972 9.24828C14.5629 9.2909 18.105 11.0383 22.5006 13.4675Z" fill="#303636"/>
<path d="M13.7521 30.0462L20.7083 16.8344C20.6656 16.7918 20.6229 16.7492 20.5802 16.7492C16.9101 14.6608 14.1788 13.297 13.1546 13.0839L13.1546 31.069L13.7521 30.0462Z" fill="#303636"/>
</svg>
