<svg width="14" height="14" viewBox="0 0 14 14" fill="none" xmlns="http://www.w3.org/2000/svg">
<g clip-path="url(#clip0)">
<path fill-rule="evenodd" clip-rule="evenodd" d="M7.17902 11.128L10.26 8.083L1.06602 8.041C0.925333 8.04048 0.786134 8.01221 0.656385 7.95783C0.526636 7.90345 0.408885 7.82401 0.309872 7.72407C0.210858 7.62413 0.132525 7.50564 0.0793567 7.37539C0.026188 7.24514 -0.000772996 7.10568 1.68656e-05 6.965V6.965C0.00067166 6.8244 0.0290302 6.68531 0.0834714 6.55568C0.137913 6.42604 0.217369 6.30841 0.317298 6.2095C0.417228 6.11059 0.535671 6.03235 0.665856 5.97924C0.796042 5.92614 0.935418 5.89921 1.07602 5.9L10.268 5.941L7.22802 2.865C7.12893 2.76523 7.05048 2.64691 6.99715 2.51681C6.94383 2.38671 6.91666 2.24737 6.91722 2.10676C6.91778 1.96615 6.94604 1.82703 7.0004 1.69735C7.05476 1.56767 7.13414 1.44998 7.23402 1.351V1.351C7.43594 1.1512 7.70891 1.03972 7.99297 1.04103C8.27702 1.04234 8.54895 1.15635 8.74902 1.358L13.749 6.407C13.9129 6.57277 14.0042 6.79685 14.0029 7.02995C14.0016 7.26305 13.9078 7.48609 13.742 7.65L8.68902 12.65C8.48726 12.8497 8.21446 12.9612 7.93057 12.9599C7.64667 12.9586 7.37491 12.8446 7.17502 12.643V12.643C7.07577 12.5433 6.99714 12.425 6.94363 12.2949C6.89012 12.1647 6.86277 12.0254 6.86314 11.8847C6.86351 11.744 6.8916 11.6047 6.9458 11.4749C7 11.3451 7.07925 11.2272 7.17902 11.128V11.128Z" fill="white"/>
</g>
<defs>
<clipPath id="clip0">
<rect width="14" height="14" fill="white"/>
</clipPath>
</defs>
</svg>
