<svg width="12" height="12" viewBox="0 0 12 12" fill="none" xmlns="http://www.w3.org/2000/svg">
<g clip-path="url(#clip0)">
<path fill-rule="evenodd" clip-rule="evenodd" d="M11.6683 1.43226C11.1835 1.7124 10.6549 1.90886 10.1049 2.0134C9.87131 1.77258 9.59143 1.58153 9.28208 1.45175C8.97274 1.32197 8.64032 1.25615 8.30486 1.25826C7.66163 1.25002 7.04144 1.49743 6.58051 1.94614C6.11958 2.39486 5.8556 3.00819 5.84657 3.6514C5.84738 3.83629 5.87011 4.02043 5.91429 4.19997C4.94077 4.15592 3.98694 3.91071 3.11288 3.47981C2.23882 3.0489 1.46348 2.44163 0.835714 1.69626C0.61797 2.05869 0.502726 2.47344 0.502286 2.89626C0.503047 3.29401 0.60376 3.68519 0.795169 4.03386C0.986578 4.38253 1.26255 4.67751 1.59771 4.89168C1.20803 4.8803 0.826422 4.77785 0.483429 4.59254C0.483429 4.60197 0.483429 4.61226 0.483429 4.62254C0.489093 5.18169 0.688786 5.72151 1.04837 6.14973C1.40796 6.57795 1.90511 6.86798 2.45486 6.97026C2.24321 7.02689 2.02509 7.05571 1.806 7.05597C1.65067 7.05628 1.49567 7.04164 1.34314 7.01226C1.50745 7.49321 1.81684 7.9114 2.2287 8.2092C2.64057 8.50701 3.13463 8.66978 3.64286 8.67511C2.76449 9.34475 1.68993 9.70625 0.585429 9.70368C0.389707 9.70208 0.19424 9.6892 0 9.66511C1.13132 10.3705 2.43821 10.7436 3.77143 10.7417C4.68051 10.7613 5.58441 10.5998 6.43052 10.2668C7.27663 9.93373 8.04805 9.43574 8.69989 8.80176C9.35172 8.16779 9.87097 7.41051 10.2274 6.57398C10.5838 5.73745 10.7703 4.83839 10.776 3.92911C10.776 3.8254 10.776 3.72254 10.7691 3.61968C11.2501 3.28294 11.6669 2.8629 12 2.3794C11.5497 2.57429 11.0732 2.70166 10.5857 2.7574C11.0965 2.46301 11.4817 1.99155 11.6683 1.43226V1.43226Z" fill="white"/>
</g>
<defs>
<clipPath id="clip0">
<rect width="12" height="12" fill="white"/>
</clipPath>
</defs>
</svg>
