<svg width="208" height="58" viewBox="0 0 208 58" fill="none" xmlns="http://www.w3.org/2000/svg">
<path fill-rule="evenodd" clip-rule="evenodd" d="M7.53516 31.3609C10.574 24.4116 13.6271 17.4683 16.6311 10.5042C16.9628 9.73516 17.342 9.45265 18.1875 9.46253C22.0051 9.50925 25.824 9.49733 29.642 9.47045C30.3579 9.46546 30.8202 9.57103 31.1433 10.3333C36.4307 22.8075 41.7519 35.2673 47.0598 47.7328C47.1189 47.872 47.102 48.0434 47.1375 48.3416C44.8781 48.3416 42.6615 48.2932 40.4483 48.363C39.4136 48.3956 39.3497 47.621 39.0964 47.0257C34.9187 37.2002 30.727 27.3804 26.6367 17.5187C26.1016 16.2286 25.4701 15.7716 24.1338 15.8904C22.7791 16.0109 21.5105 15.6221 20.7986 17.5479C19.0724 22.2183 17.0073 26.7642 15.0786 31.3604C12.5642 31.3606 10.0497 31.3608 7.53516 31.3609Z" fill="white"/>
<path fill-rule="evenodd" clip-rule="evenodd" d="M9.44954 38.1138C7.64733 38.1142 5.94974 38.1147 4.49886 38.1147C3.01935 41.4789 1.53876 44.8445 0 48.3427C2.47822 48.3427 4.6739 48.307 6.86723 48.363C7.59475 48.3815 7.94896 48.1332 8.21043 47.5061C9.51743 44.3687 10.8527 41.2425 12.1786 38.1129C11.2635 38.1133 10.3481 38.1136 9.44954 38.1138Z" fill="white"/>
<path fill-rule="evenodd" clip-rule="evenodd" d="M86.0391 20.7018C87.5047 17.274 88.9772 13.8493 90.426 10.4143C90.586 10.035 90.7689 9.89564 91.1767 9.90051C93.0179 9.92356 94.8598 9.91768 96.7012 9.90442C97.0465 9.90196 97.2695 9.95403 97.4253 10.33C99.9754 16.4828 102.542 22.6285 105.102 28.7771C105.13 28.8457 105.122 28.9303 105.139 29.0774C104.05 29.0774 102.981 29.0535 101.913 29.0879C101.414 29.104 101.383 28.7219 101.261 28.4283C99.2461 23.5819 97.2245 18.7384 95.2518 13.8742C94.9937 13.2378 94.6891 13.0124 94.0446 13.071C93.3912 13.1305 92.7794 12.9387 92.4361 13.8886C91.6035 16.1922 90.6075 18.4345 89.6773 20.7015C88.4646 20.7016 87.2518 20.7017 86.0391 20.7018Z" fill="white"/>
<path fill-rule="evenodd" clip-rule="evenodd" d="M143.077 20.7018C144.542 17.274 146.015 13.8493 147.464 10.4143C147.624 10.035 147.807 9.89564 148.214 9.90051C150.056 9.92356 151.897 9.91768 153.739 9.90442C154.084 9.90196 154.307 9.95403 154.463 10.33C157.013 16.4828 159.58 22.6285 162.139 28.7771C162.168 28.8457 162.16 28.9303 162.177 29.0774C161.087 29.0774 160.018 29.0535 158.951 29.0879C158.452 29.104 158.421 28.7219 158.299 28.4283C156.284 23.5819 154.262 18.7384 152.289 13.8742C152.031 13.2378 151.727 13.0124 151.082 13.071C150.429 13.1305 149.817 12.9387 149.474 13.8886C148.641 16.1922 147.645 18.4345 146.715 20.7015C145.502 20.7016 144.289 20.7017 143.077 20.7018Z" fill="white"/>
<path fill-rule="evenodd" clip-rule="evenodd" d="M69.8975 20.2112C70.8957 20.2112 71.5867 20.1187 71.9706 19.9336C72.354 19.7485 72.5462 19.4092 72.5462 18.9159V13.5804C72.5462 13.0868 72.354 12.7478 71.9706 12.5627C71.5867 12.3776 70.8957 12.2851 69.8975 12.2851H64.2935V20.2112H69.8975ZM64.2935 29.0008H60.4551V9.72534H69.8594C71.5734 9.72534 72.9107 9.93104 73.8703 10.3423C74.8298 10.7537 75.5209 11.427 75.9434 12.3621C76.3654 13.2981 76.5764 14.5879 76.5764 16.2328C76.5764 18.5358 76.1024 20.1803 75.1562 21.1673C74.2095 22.1543 72.6356 22.6477 70.435 22.6477H64.2935V29.0008Z" fill="white"/>
<path fill-rule="evenodd" clip-rule="evenodd" d="M116.944 19.7485H122.731C123.727 19.7485 124.417 19.656 124.8 19.4709C125.183 19.2858 125.375 18.9468 125.375 18.4532V13.5804C125.375 13.0868 125.183 12.7478 124.8 12.5627C124.417 12.3776 123.727 12.2851 122.731 12.2851H116.944V19.7485ZM126.371 29.0008L122.386 22.1849H116.944V29.0008H113.112V9.72534H122.692C124.403 9.72534 125.739 9.93104 126.697 10.3423C127.655 10.7537 128.345 11.427 128.766 12.3621C129.187 13.2981 129.398 14.5879 129.398 16.2327C129.398 17.8164 129.149 19.0546 128.651 19.9489C128.153 20.8435 127.342 21.4655 126.218 21.8148L130.548 29.0008H126.371Z" fill="white"/>
<path fill-rule="evenodd" clip-rule="evenodd" d="M175.479 29.0008H171.64V9.72534H184.694L184.272 12.2852H175.479V18.5458H183.159V20.9822H175.479V29.0008Z" fill="white"/>
<mask id="mask0" mask-type="alpha" maskUnits="userSpaceOnUse" x="46" y="0" width="162" height="58">
<path d="M46.8745 57.8265H208V0H46.8745V57.8265Z" fill="white"/>
</mask>
<g mask="url(#mask0)">
<path fill-rule="evenodd" clip-rule="evenodd" d="M194.858 29.0008H198.625V9.72534H194.858V29.0008Z" fill="white"/>
<path fill-rule="evenodd" clip-rule="evenodd" d="M84.5274 23.9199C83.8143 25.5877 83.1006 27.2561 82.3589 28.9902C83.5534 28.9902 84.6118 28.9726 85.669 29.0003C86.0197 29.0095 86.1904 28.8864 86.3164 28.5755C86.9464 27.0202 87.59 25.4705 88.2291 23.9191C87.788 23.9192 87.3468 23.9194 86.9137 23.9195C86.045 23.9197 85.2267 23.9199 84.5274 23.9199Z" fill="white"/>
<path fill-rule="evenodd" clip-rule="evenodd" d="M144.058 23.9195C143.183 23.9197 142.359 23.9199 141.657 23.9199C140.942 25.5877 140.228 27.256 139.484 28.9904C140.678 28.9904 141.735 28.9727 142.791 29.0003C143.141 29.0095 143.312 28.8868 143.438 28.5768C144.069 27.0211 144.714 25.471 145.355 23.9191C144.92 23.9192 144.485 23.9193 144.058 23.9195Z" fill="white"/>
<path fill-rule="evenodd" clip-rule="evenodd" d="M70.9688 45.4693V42.5845C70.9688 41.6652 71.1738 40.9967 71.5834 40.5792C71.9932 40.1615 72.645 39.9528 73.5389 39.9528H75.0412C75.8028 39.9528 76.3698 40.1152 76.7423 40.4399C77.1147 40.7647 77.3215 41.2856 77.3631 42.0026C77.3796 42.2219 77.2719 42.3314 77.0403 42.3314C76.8417 42.3314 76.7339 42.2219 76.7175 42.0026C76.6843 41.4881 76.5436 41.1276 76.2952 40.9208C76.047 40.7141 75.6289 40.6107 75.0412 40.6107H73.5389C73.0588 40.6107 72.6801 40.6741 72.4028 40.8005C72.1255 40.9271 71.9249 41.1316 71.8007 41.4143C71.6765 41.6969 71.6145 42.0869 71.6145 42.5845V45.4693C71.6145 45.9672 71.6765 46.3572 71.8007 46.6396C71.9249 46.9224 72.1255 47.1268 72.4028 47.2534C72.6801 47.3798 73.0629 47.4432 73.5515 47.4432H75.0412C75.6289 47.4432 76.047 47.342 76.2952 47.1395C76.5436 46.937 76.6843 46.5744 76.7175 46.0515C76.7339 45.8321 76.8417 45.7224 77.0403 45.7224C77.2719 45.7224 77.3796 45.8362 77.3631 46.0641C77.3215 46.7811 77.1147 47.2997 76.7423 47.6203C76.3698 47.9409 75.8028 48.101 75.0412 48.101H73.5515C72.6574 48.101 72.0034 47.8904 71.5896 47.4684C71.1757 47.0467 70.9688 46.3803 70.9688 45.4693Z" fill="white"/>
<path fill-rule="evenodd" clip-rule="evenodd" d="M92.7446 45.2416H96.2424L94.4935 40.9903L92.7446 45.2416ZM97.9544 47.7974C97.9544 47.9072 97.8845 47.9956 97.7449 48.063C97.6957 48.0884 97.6422 48.101 97.5848 48.101C97.4697 48.101 97.3879 48.0336 97.3385 47.8986L96.5134 45.8995H96.4764H92.486L91.6609 47.8986C91.6033 48.0336 91.5131 48.101 91.3899 48.101C91.3487 48.101 91.2954 48.0884 91.2298 48.063C91.0984 48.0125 91.0327 47.9197 91.0327 47.7847C91.0327 47.7173 91.0409 47.6667 91.0573 47.633L94.1117 40.2058C94.1774 40.0371 94.3004 39.9528 94.4811 39.9528H94.5058C94.67 39.9528 94.7891 40.0371 94.8629 40.2058L97.9174 47.633C97.9419 47.6919 97.9544 47.7468 97.9544 47.7974Z" fill="white"/>
<path fill-rule="evenodd" clip-rule="evenodd" d="M116.501 42.1417C116.501 41.6103 116.383 41.2224 116.149 40.9777C115.914 40.733 115.534 40.6107 115.007 40.6107H112.44V44.0522H115.007C115.534 44.0522 115.914 43.9321 116.149 43.6917C116.383 43.4512 116.501 43.0612 116.501 42.5212V42.1417ZM116.599 40.5094C116.961 40.8808 117.142 41.4249 117.142 42.1417V42.5212C117.142 43.2383 116.963 43.7823 116.606 44.1534C116.248 44.5248 115.715 44.7101 115.007 44.7101H112.44V47.772C112.44 47.9915 112.333 48.101 112.119 48.101C111.905 48.101 111.798 47.9915 111.798 47.772V40.2818C111.798 40.0625 111.905 39.9528 112.119 39.9528H115.007C115.706 39.9528 116.237 40.1384 116.599 40.5094Z" fill="white"/>
<path fill-rule="evenodd" clip-rule="evenodd" d="M131.156 48.0124C131.101 47.9535 131.073 47.8732 131.073 47.772V40.2818C131.073 40.1806 131.101 40.1005 131.156 40.0413C131.211 39.9825 131.285 39.9528 131.38 39.9528C131.474 39.9528 131.549 39.9825 131.604 40.0413C131.659 40.1005 131.687 40.1806 131.687 40.2818V47.772C131.687 47.8732 131.659 47.9535 131.604 48.0124C131.549 48.0716 131.474 48.101 131.38 48.101C131.285 48.101 131.211 48.0716 131.156 48.0124Z" fill="white"/>
<path fill-rule="evenodd" clip-rule="evenodd" d="M148.761 48.0063C148.699 47.9431 148.668 47.8654 148.668 47.7726V40.6096H146.027C145.936 40.6096 145.86 40.5781 145.798 40.515C145.736 40.4516 145.705 40.374 145.705 40.2813C145.705 40.1802 145.736 40.1002 145.798 40.0411C145.86 39.9824 145.936 39.9528 146.027 39.9528H151.954C152.053 39.9528 152.132 39.9824 152.189 40.0411C152.247 40.1002 152.276 40.1802 152.276 40.2813C152.276 40.374 152.247 40.4516 152.189 40.515C152.132 40.5781 152.053 40.6096 151.954 40.6096H149.313V47.7726C149.313 47.8654 149.284 47.9431 149.226 48.0063C149.168 48.0696 149.09 48.101 148.991 48.101C148.9 48.101 148.823 48.0696 148.761 48.0063Z" fill="white"/>
<path fill-rule="evenodd" clip-rule="evenodd" d="M165.202 45.2416H168.7L166.952 40.9903L165.202 45.2416ZM170.412 47.7974C170.412 47.9072 170.342 47.9956 170.203 48.063C170.153 48.0884 170.1 48.101 170.043 48.101C169.928 48.101 169.846 48.0336 169.796 47.8986L168.971 45.8995H168.934H164.944L164.119 47.8986C164.061 48.0336 163.971 48.101 163.848 48.101C163.806 48.101 163.753 48.0884 163.688 48.063C163.556 48.0125 163.491 47.9197 163.491 47.7847C163.491 47.7173 163.499 47.6667 163.515 47.633L166.57 40.2058C166.635 40.0371 166.758 39.9528 166.939 39.9528H166.964C167.128 39.9528 167.247 40.0371 167.321 40.2058L170.375 47.633C170.4 47.6919 170.412 47.7468 170.412 47.7974Z" fill="white"/>
<path fill-rule="evenodd" clip-rule="evenodd" d="M184.344 47.772V40.2818C184.344 40.0625 184.45 39.9528 184.665 39.9528C184.879 39.9528 184.986 40.0625 184.986 40.2818V47.4432H188.754C188.968 47.4432 189.075 47.5528 189.075 47.772C189.075 47.9915 188.968 48.101 188.754 48.101H184.665C184.45 48.101 184.344 47.9915 184.344 47.772Z" fill="white"/>
</g>
</svg>
