<svg width="12" height="12" viewBox="0 0 12 12" fill="none" xmlns="http://www.w3.org/2000/svg">
<path d="M10 3C10 3 8.8535 2.1025 7.5 2L7.378 2.24425C8.6015 2.544 9.163 2.9725 9.75 3.5C8.73825 2.9835 7.74 2.5 6 2.5C4.26 2.5 3.26175 2.9835 2.25 3.5C2.837 2.9725 3.505 2.496 4.622 2.24425L4.5 2C3.08 2.13375 2 3 2 3C2 3 0.71975 4.8565 0.5 8.5C1.79 9.98825 3.75 10 3.75 10L4.16 9.454C3.464 9.212 2.679 8.78025 2 8C2.8095 8.6125 4.03125 9.25 6 9.25C7.96875 9.25 9.1905 8.6125 10 8C9.32125 8.78025 8.53625 9.212 7.84 9.454L8.25 10C8.25 10 10.21 9.98825 11.5 8.5C11.2802 4.8565 10 3 10 3ZM4.375 7.5C3.8915 7.5 3.5 7.0525 3.5 6.5C3.5 5.9475 3.8915 5.5 4.375 5.5C4.8585 5.5 5.25 5.9475 5.25 6.5C5.25 7.0525 4.8585 7.5 4.375 7.5ZM7.625 7.5C7.1415 7.5 6.75 7.0525 6.75 6.5C6.75 5.9475 7.1415 5.5 7.625 5.5C8.1085 5.5 8.5 5.9475 8.5 6.5C8.5 7.0525 8.1085 7.5 7.625 7.5Z" fill="white"/>
</svg>
