<svg width="14" height="14" viewBox="0 0 14 14" fill="none" xmlns="http://www.w3.org/2000/svg">
<g opacity="0.5" clip-path="url(#clip0)">
<path fill-rule="evenodd" clip-rule="evenodd" d="M14 2.941C14 2.59622 13.863 2.26556 13.6192 2.02176C13.3754 1.77796 13.0448 1.641 12.7 1.641H1.3C0.955219 1.641 0.624558 1.77796 0.380761 2.02176C0.136964 2.26556 0 2.59622 0 2.941L0 11.059C0 11.4038 0.136964 11.7344 0.380761 11.9782C0.624558 12.222 0.955219 12.359 1.3 12.359H12.7C13.0448 12.359 13.3754 12.222 13.6192 11.9782C13.863 11.7344 14 11.4038 14 11.059V2.941ZM6.636 8.084L2.7 4.337C2.63432 4.27225 2.59007 4.18891 2.57322 4.09823C2.55637 4.00755 2.56773 3.91388 2.60576 3.82985C2.6438 3.74583 2.70668 3.67548 2.78594 3.6283C2.86519 3.58113 2.957 3.55938 3.049 3.566H10.954C11.0463 3.55902 11.1384 3.58064 11.2179 3.62792C11.2975 3.6752 11.3605 3.74584 11.3984 3.83023C11.4363 3.91461 11.4473 4.00864 11.4299 4.0995C11.4125 4.19036 11.3675 4.27364 11.301 4.338L7.332 8.085C7.237 8.17215 7.11272 8.22041 6.98381 8.22023C6.85489 8.22004 6.73075 8.17142 6.636 8.084V8.084Z" fill="white"/>
</g>
<defs>
<clipPath id="clip0">
<rect width="14" height="14" fill="white"/>
</clipPath>
</defs>
</svg>
