<svg width="98" height="33" viewBox="0 0 98 33" fill="none" xmlns="http://www.w3.org/2000/svg">
<g clip-path="url(#clip0)">
<path d="M39.8739 10.615H34.7258C34.5386 10.615 34.4138 10.4901 34.4138 10.3028V7.96125C34.4138 7.77393 34.5386 7.64905 34.7258 7.64905H48.8283C49.0155 7.64905 49.1403 7.77393 49.1403 7.96125V10.3028C49.1403 10.4901 49.0155 10.615 48.8283 10.615H43.6803C43.4931 10.615 43.3683 10.7399 43.3683 10.9272V25.4759C43.3683 25.6632 43.2435 25.7881 43.0563 25.7881H40.4355C40.2483 25.7881 40.1235 25.6632 40.1235 25.4759V10.9272C40.1547 10.7711 40.0299 10.6462 39.8739 10.615Z" fill="white"/>
<path d="M47.3931 19.0132V18.6386C47.3931 14.9545 50.2947 11.8637 53.9451 11.8325C58.3756 11.7701 60.5908 15.2043 60.5908 19.1693C60.5908 19.3566 60.5908 19.5752 60.5596 19.7625C60.5284 19.9186 60.4036 20.0435 60.2476 20.0435H50.8875C50.7003 20.0435 50.5755 20.1996 50.5755 20.3557C50.5755 20.3869 50.5755 20.3869 50.5755 20.3869C50.9187 22.2289 52.5723 23.5714 54.4443 23.4777C55.7547 23.4777 57.0339 22.9782 57.9388 22.0416C58.0636 21.9479 58.2196 21.9479 58.3444 22.0416L59.7484 23.2904C59.8732 23.4153 59.8732 23.6026 59.7796 23.7275C58.4068 25.2573 56.4411 26.1315 54.3819 26.069C50.4507 26.1002 47.3931 23.228 47.3931 19.0132ZM57.1587 18.0142C57.3459 18.0142 57.4707 17.858 57.4707 17.7019V17.6707C57.1587 15.8287 56.0043 14.4238 54.0387 14.4238C52.2291 14.4238 50.9499 15.7351 50.5443 17.6707C50.5131 17.8268 50.6379 18.0142 50.7939 18.0454H50.8251L57.1587 18.0142Z" fill="white"/>
<path d="M63.2117 6.89966H65.7389C65.9261 6.89966 66.0509 7.02454 66.0509 7.21186V25.507C66.0509 25.6944 65.9261 25.8192 65.7389 25.8192H63.2117C63.0245 25.8192 62.8997 25.6944 62.8997 25.507V7.21186C62.8997 7.02454 63.0557 6.89966 63.2117 6.89966Z" fill="white"/>
<path d="M69.5767 6.89966H72.1039C72.2911 6.89966 72.4159 7.02454 72.4159 7.21186V25.507C72.4159 25.6944 72.2911 25.8192 72.1039 25.8192H69.5767C69.3894 25.8192 69.2646 25.6944 69.2646 25.507V7.21186C69.2646 7.02454 69.4206 6.89966 69.5767 6.89966Z" fill="white"/>
<path d="M74.6934 19.0132V18.6386C74.6934 14.9545 77.595 11.8637 81.2454 11.8325C85.6759 11.7701 87.8911 15.2043 87.8911 19.1693C87.8911 19.3566 87.8911 19.5752 87.8599 19.7625C87.8287 19.9186 87.7039 20.0435 87.5479 20.0435H78.1878C78.0006 20.0435 77.8758 20.1996 77.8758 20.3557C77.8758 20.3869 77.8758 20.3869 77.8758 20.3869C78.219 22.2289 79.8726 23.5714 81.7446 23.4777C83.055 23.4777 84.3342 22.9782 85.2391 22.0416C85.3639 21.9479 85.5199 21.9479 85.6447 22.0416L87.0487 23.2904C87.1735 23.4153 87.1735 23.6026 87.0799 23.7275C85.7071 25.2573 83.7414 26.1315 81.6822 26.069C77.751 26.1002 74.6934 23.228 74.6934 19.0132ZM84.4902 18.0142C84.6774 18.0142 84.8022 17.8893 84.8022 17.7019C84.8022 17.6707 84.8022 17.6707 84.8022 17.6707C84.4902 15.8287 83.3358 14.4238 81.3702 14.4238C79.5606 14.4238 78.2814 15.7351 77.8758 17.6707C77.8446 17.8268 77.9694 18.0142 78.1254 18.0454H78.1566L84.4902 18.0142Z" fill="white"/>
<path d="M90.3559 12.1135H92.8831C93.0703 12.1135 93.1951 12.2384 93.1951 12.4257V13.9868C93.2263 14.1429 93.3823 14.2677 93.5383 14.2677C93.6319 14.2677 93.6943 14.2053 93.7567 14.1429C94.5679 12.7379 96.0968 11.8638 97.7192 11.8638C97.8752 11.8638 98 12.0199 98 12.176V15.2044H97.8128C95.0671 15.2044 93.1639 16.9839 93.1639 20.6055V25.5071C93.1639 25.6944 93.0391 25.8193 92.8519 25.8193H90.3247C90.1375 25.8193 90.0127 25.6944 90.0127 25.5071V12.4257C90.0439 12.2696 90.1687 12.1135 90.3559 12.1135Z" fill="white"/>
<path d="M11.7313 32.1259C12.4801 33.0937 13.8529 33.3123 14.8513 32.563C15.0073 32.4381 15.1633 32.282 15.2881 32.1259C17.7841 28.7853 22.5578 26.1316 27.0506 25.7257L24.2426 20.3558C24.1802 20.387 24.149 20.387 24.0866 20.4182C19.2506 23.2593 14.8825 25.6008 13.5721 25.6008C12.2617 25.6008 7.73766 23.1656 2.83922 20.2933L0 25.6945C4.49284 26.1003 9.17288 28.7541 11.7313 32.1259Z" fill="white"/>
<path d="M13.5721 22.791C14.5705 22.6037 18.2522 20.6055 22.9322 17.8582L20.3738 12.9878C17.1602 14.7673 14.5393 16.0161 13.5721 16.0161C12.6049 16.0161 9.9529 14.7361 6.70808 12.9565L4.14966 17.8582C8.8609 20.6055 12.5425 22.6037 13.5721 22.791Z" fill="white"/>
<path d="M13.5722 13.2062C14.2898 13.0814 16.2866 12.0511 19.0322 10.5213L19.0634 10.4901L13.541 0L13.1042 0.749291L8.01855 10.4588C8.04975 10.4901 8.08095 10.5213 8.11216 10.5213C10.8578 12.0823 12.8546 13.0814 13.5722 13.2062Z" fill="white"/>
</g>
<defs>
<clipPath id="clip0">
<rect width="98" height="33" fill="white"/>
</clipPath>
</defs>
</svg>
