<svg width="212" height="33" viewBox="0 0 212 33" fill="none" xmlns="http://www.w3.org/2000/svg">
<path fill-rule="evenodd" clip-rule="evenodd" d="M0 6.35107V13.9202H5.97626V6.35107H0ZM6.01548 6.34811H19.4011V0.652237H6.01548V6.34811ZM211.206 10.0873H203.671L196.309 18.0442V0H190.55V31.4795H196.309V25.8271L198.691 23.3053L204.321 31.4795H211.38L202.675 19.0877L211.206 10.0873ZM6.01954 31.4795V19.4791H17.9287V13.9571H6.01555V19.5073H0V31.4795H6.01954ZM34.5298 10.0004C34.0967 9.95691 33.6636 9.91346 33.1873 9.91346C31.3685 9.91346 28.4236 10.4352 27.1245 13.2614V10.0873H21.538V31.4795H27.2977V21.6965C27.2977 17.0876 29.8527 15.6528 32.7976 15.6528C33.3172 15.6528 33.8802 15.6963 34.5298 15.8267V10.0004ZM43.8615 32.0882C39.3144 32.0882 36.5429 29.0012 36.5429 25.6532C36.5429 21.8269 39.3577 19.6964 42.9088 19.1747L48.1489 18.392C49.3614 18.2181 49.7512 17.6094 49.7512 16.8703C49.7512 15.3485 48.5819 14.0875 46.1568 14.0875C43.6451 14.0875 42.2592 15.6963 42.086 17.5659L36.9759 16.4789C37.3223 13.131 40.3971 9.43518 46.1135 9.43518C52.8692 9.43518 55.381 13.2614 55.381 17.5659V28.0881C55.381 29.2186 55.5109 30.7403 55.6408 31.4795H50.3574C50.2275 30.9143 50.141 29.7403 50.141 28.9142C49.0583 30.6099 47.0229 32.0882 43.8615 32.0882ZM42.3025 25.3054C42.3025 26.5663 43.212 27.7837 45.0742 27.7837C47.4993 27.7837 49.7512 26.6098 49.7512 22.827V21.8705L44.9442 22.6096C43.4718 22.827 42.3025 23.6531 42.3025 25.3054ZM64.6032 31.4795V18.9573C64.6032 16.6093 66.0757 14.7398 68.5875 14.7398C71.1857 14.7398 72.3548 16.4789 72.3548 18.7834V31.4795H78.0712V18.9573C78.0712 16.6529 79.5439 14.7398 82.0121 14.7398C84.6539 14.7398 85.7794 16.4789 85.7794 18.7834V31.4795H91.3665V17.6094C91.3665 11.87 87.5985 9.47863 83.6576 9.47863C80.843 9.47863 78.5911 10.4352 76.9021 13.044C75.8194 10.7396 73.4811 9.47863 70.5793 9.47863C68.2411 9.47863 65.5122 10.6091 64.3433 12.6961V10.0873H58.8434V31.4795H64.6032ZM125.778 23.827L130.411 10.0873H136.474L141.065 23.8705L145.005 10.0873H150.722L144.052 31.4795H138.293L133.313 16.8703L128.42 31.4795H122.573L115.774 10.0873H121.837L125.778 23.827ZM161.735 26.8706C158.92 26.8706 156.322 24.7836 156.322 20.7835C156.322 16.7398 158.92 14.6962 161.735 14.6962C164.55 14.6962 167.148 16.7398 167.148 20.7835C167.148 24.8271 164.55 26.8706 161.735 26.8706ZM161.735 9.43518C155.369 9.43518 150.562 14.1745 150.562 20.7835C150.562 27.3489 155.369 32.1317 161.735 32.1317C168.101 32.1317 172.908 27.3489 172.908 20.7835C172.908 14.1745 168.101 9.43518 161.735 9.43518ZM186.76 9.91346C187.237 9.91346 187.67 9.95691 188.103 10.0004V15.8267C187.453 15.6963 186.89 15.6528 186.371 15.6528C183.426 15.6528 180.871 17.0876 180.871 21.6965V31.4795H175.111V10.0873H180.698V13.2614C181.997 10.4352 184.941 9.91346 186.76 9.91346Z" fill="white"/>
<path d="M99.7967 18.3483C99.9267 16.3916 101.572 14.1307 104.56 14.1307C107.852 14.1307 109.238 16.2177 109.324 18.3483H99.7967ZM109.887 23.9137C109.195 25.8268 107.722 27.1747 105.037 27.1747C102.178 27.1747 99.7967 25.1311 99.6667 22.3049H114.911C114.911 22.2179 114.997 21.3483 114.997 20.5222C114.997 13.6524 111.057 9.43488 104.474 9.43488C99.0175 9.43488 93.9939 13.8698 93.9939 20.6962C93.9939 27.9138 99.1475 32.1314 104.994 32.1314C110.234 32.1314 113.611 29.0443 114.694 25.3485L109.887 23.9137Z" fill="white"/>
</svg>
