<svg width="122" height="41" viewBox="0 0 122 41" fill="none" xmlns="http://www.w3.org/2000/svg">
<g clip-path="url(#clip0)">
<path d="M49.639 13.1883H43.2302C42.9972 13.1883 42.8418 13.0331 42.8418 12.8004V9.89122C42.8418 9.65848 42.9972 9.50333 43.2302 9.50333H60.7864C61.0194 9.50333 61.1748 9.65848 61.1748 9.89122V12.8004C61.1748 13.0331 61.0194 13.1883 60.7864 13.1883H54.3776C54.1446 13.1883 53.9892 13.3434 53.9892 13.5762V31.6519C53.9892 31.8846 53.8338 32.0397 53.6008 32.0397H50.3381C50.1051 32.0397 49.9497 31.8846 49.9497 31.6519V13.5762C49.9886 13.3822 49.8332 13.2271 49.639 13.1883Z" fill="white"/>
<path d="M58.9998 23.6225V23.1571C58.9998 18.58 62.612 14.7398 67.1564 14.7011C72.6718 14.6235 75.4296 18.8903 75.4296 23.8165C75.4296 24.0492 75.4296 24.3207 75.3907 24.5535C75.3519 24.7474 75.1965 24.9026 75.0023 24.9026H63.35C63.1169 24.9026 62.9616 25.0965 62.9616 25.2905C62.9616 25.3292 62.9616 25.3293 62.9616 25.3293C63.3888 27.6178 65.4474 29.2857 67.7779 29.1694C69.4092 29.1694 71.0017 28.5487 72.1281 27.3851C72.2834 27.2687 72.4776 27.2687 72.633 27.3851L74.3808 28.9366C74.5362 29.0918 74.5362 29.3245 74.4197 29.4797C72.7107 31.3803 70.2637 32.4664 67.7002 32.3889C62.8062 32.4276 58.9998 28.8591 58.9998 23.6225ZM71.157 22.3813C71.3901 22.3813 71.5454 22.1873 71.5454 21.9934V21.9546C71.157 19.666 69.7199 17.9205 67.2729 17.9205C65.0201 17.9205 63.4276 19.5497 62.9227 21.9546C62.8839 22.1485 63.0392 22.3813 63.2334 22.4201H63.2723L71.157 22.3813Z" fill="white"/>
<path d="M78.6921 8.57239H81.8383C82.0713 8.57239 82.2267 8.72754 82.2267 8.96028V31.6907C82.2267 31.9234 82.0713 32.0785 81.8383 32.0785H78.6921C78.4591 32.0785 78.3037 31.9234 78.3037 31.6907V8.96028C78.3037 8.72754 78.4979 8.57239 78.6921 8.57239Z" fill="white"/>
<path d="M86.6157 8.57239H89.7618C89.9949 8.57239 90.1503 8.72754 90.1503 8.96028V31.6907C90.1503 31.9234 89.9949 32.0785 89.7618 32.0785H86.6157C86.3827 32.0785 86.2273 31.9234 86.2273 31.6907V8.96028C86.2273 8.72754 86.4215 8.57239 86.6157 8.57239Z" fill="white"/>
<path d="M92.9856 23.6225V23.1571C92.9856 18.58 96.5978 14.7398 101.142 14.7011C106.658 14.6235 109.415 18.8903 109.415 23.8165C109.415 24.0492 109.415 24.3207 109.377 24.5535C109.338 24.7474 109.182 24.9026 108.988 24.9026H97.3358C97.1028 24.9026 96.9474 25.0965 96.9474 25.2905C96.9474 25.3292 96.9474 25.3293 96.9474 25.3293C97.3746 27.6178 99.4332 29.2857 101.764 29.1694C103.395 29.1694 104.988 28.5487 106.114 27.3851C106.269 27.2687 106.463 27.2687 106.619 27.3851L108.367 28.9366C108.522 29.0918 108.522 29.3245 108.406 29.4797C106.697 31.3803 104.25 32.4664 101.686 32.3889C96.792 32.4276 92.9856 28.8591 92.9856 23.6225ZM105.182 22.3813C105.415 22.3813 105.57 22.2261 105.57 21.9934C105.57 21.9546 105.57 21.9546 105.57 21.9546C105.182 19.666 103.745 17.9205 101.298 17.9205C99.0448 17.9205 97.4523 19.5497 96.9474 21.9546C96.9086 22.1485 97.0639 22.3813 97.2581 22.4201H97.297L105.182 22.3813Z" fill="white"/>
<path d="M112.484 15.0501H115.63C115.863 15.0501 116.018 15.2053 116.018 15.438V17.3775C116.057 17.5714 116.251 17.7266 116.446 17.7266C116.562 17.7266 116.64 17.649 116.718 17.5714C117.727 15.8259 119.631 14.7398 121.65 14.7398C121.845 14.7398 122 14.9338 122 15.1277V18.8902H121.767C118.349 18.8902 115.98 21.1012 115.98 25.6007V31.6906C115.98 31.9233 115.824 32.0785 115.591 32.0785H112.445C112.212 32.0785 112.057 31.9233 112.057 31.6906V15.438C112.095 15.2441 112.251 15.0501 112.484 15.0501Z" fill="white"/>
<path d="M14.6043 39.9139C15.5365 41.1164 17.2455 41.3879 18.4884 40.4569C18.6826 40.3018 18.8768 40.1078 19.0322 39.9139C22.1394 35.7635 28.0821 32.4664 33.6753 31.9621L30.1796 25.2904C30.1019 25.3292 30.063 25.3292 29.9854 25.368C23.965 28.8978 18.5272 31.807 16.8959 31.807C15.2646 31.807 9.6326 28.7814 3.53454 25.2129L0 31.9234C5.59312 32.4276 11.4193 35.7247 14.6043 39.9139Z" fill="#00A09D"/>
<path d="M16.8958 28.316C18.1387 28.0832 22.722 25.6008 28.5481 22.1873L25.3632 16.1362C21.3625 18.3472 18.0999 19.8988 16.8958 19.8988C15.6917 19.8988 12.3902 18.3084 8.35074 16.0974L5.16577 22.1873C11.0308 25.6008 15.614 28.0832 16.8958 28.316Z" fill="#00A09D"/>
<path d="M16.8959 16.4078C17.7892 16.2526 20.2751 14.9726 23.6931 13.0719L23.7319 13.0331L16.8571 0L16.3133 0.930937L9.98218 12.9943C10.021 13.0331 10.0599 13.0719 10.0987 13.0719C13.5167 15.0114 16.0026 16.2526 16.8959 16.4078Z" fill="#00A09D"/>
<path d="M3.53454 25.2129L0 31.9234C5.59312 32.4276 11.4193 35.7247 14.6043 39.9139C15.148 40.6121 15.9637 41.0388 16.8182 41V31.7682C15.1092 31.7294 9.59376 28.7815 3.53454 25.2129Z" fill="#008B88"/>
<path d="M8.35075 16.0587L5.16577 22.1485C10.9531 25.562 15.5364 28.0445 16.8181 28.316V19.8988C15.5752 19.86 12.3514 18.2696 8.35075 16.0587Z" fill="#008B88"/>
<path d="M16.3133 0.969724L9.98218 12.9943C10.021 13.0331 10.0599 13.0719 10.0987 13.0719C13.439 14.9726 15.9249 16.2138 16.8571 16.4078V0.0387878L16.3133 0.969724Z" fill="#008B88"/>
</g>
<defs>
<clipPath id="clip0">
<rect width="122" height="41" fill="white"/>
</clipPath>
</defs>
</svg>
