<svg width="210" height="42" viewBox="0 0 210 42" fill="none" xmlns="http://www.w3.org/2000/svg">
<path d="M73.4375 20.314V4.73085H75.2316L81.5354 14.2703L87.8659 4.73085H89.6308V20.314H87.7224V8.14649L81.5354 17.3651L75.3459 8.14649V20.314H73.4375ZM102.63 14.2995H109.493L106.045 7.40016L102.63 14.2995ZM97.6047 20.314L105.241 4.73085H106.85L114.576 20.314H112.471L110.353 16.1228H101.742L99.6808 20.314H97.6047ZM127.436 20.314H126.221L118.709 4.73085H120.814L126.828 17.2192L132.843 4.73085H134.987L127.436 20.314ZM142.873 20.314V4.73085H155.133V6.52254H144.811V11.0905H151.056V12.8822H144.811V18.5223H155.768V20.314H142.873ZM164.408 20.314V4.73085H165.424L175.54 16.3781V4.73085H177.477V20.314H176.488L166.345 8.66674V20.314H164.408ZM189.504 5.21463V3.09961H194.39V20.314H191.971V5.21463H189.504ZM205.116 5.21463V3.09961H210V20.314H207.581V5.21463H205.116Z" fill="white"/>
<path d="M99.9337 37.5964L100.495 38.0097C100.238 38.4959 99.8851 38.8727 99.4402 39.1328C98.9929 39.3954 98.4872 39.5267 97.9183 39.5267C97.0796 39.5267 96.3868 39.2495 95.8398 38.6977C95.2952 38.1458 95.0205 37.4457 95.0205 36.5948C95.0205 35.7439 95.2952 35.0414 95.8422 34.4871C96.3916 33.9352 97.082 33.6581 97.9159 33.6581C98.4337 33.6581 98.9053 33.7723 99.3308 33.9984C99.7562 34.2245 100.104 34.5478 100.371 34.9684L99.7878 35.3841C99.6128 35.0486 99.3575 34.7861 99.0269 34.5965C98.6963 34.4093 98.3268 34.3145 97.9183 34.3145C97.2887 34.3145 96.7684 34.5308 96.3552 34.9611C95.9443 35.3914 95.7377 35.936 95.7377 36.5948C95.7377 37.2536 95.9443 37.7982 96.3552 38.2285C96.7684 38.6588 97.2887 38.8727 97.9183 38.8727C98.3559 38.8727 98.7473 38.7633 99.0877 38.5469C99.428 38.3306 99.71 38.0145 99.9337 37.5964ZM112.349 37.222H114.814L113.577 34.7423L112.349 37.222ZM110.543 39.3808L113.288 33.7845H113.866L116.64 39.3808H115.884L115.123 37.876H112.031L111.289 39.3808H110.543ZM127.799 36.2763H130.271C130.621 36.2763 130.888 36.1985 131.068 36.043C131.251 35.8874 131.341 35.6588 131.341 35.3598C131.341 35.0657 131.251 34.8371 131.068 34.6743C130.888 34.509 130.633 34.4287 130.305 34.4287H127.799V36.2763ZM127.103 39.3808V33.7845H130.315C130.859 33.7845 131.287 33.9182 131.598 34.1881C131.912 34.4579 132.067 34.8299 132.067 35.299C132.067 35.7853 131.917 36.1791 131.613 36.4781C131.311 36.7796 130.91 36.9303 130.407 36.9303H127.799V39.3808H127.103ZM142.874 39.3808V33.7529H143.581V39.3808H142.874ZM155.885 39.3808V34.4287H153.526V33.7845H158.938V34.4287H156.58V39.3808H155.885ZM169.277 37.222H171.742L170.505 34.7423L169.277 37.222ZM167.473 39.3808L170.216 33.7845H170.794L173.571 39.3808H172.812L172.054 37.876H168.959L168.22 39.3808H167.473ZM184.063 39.3808V33.7845H184.758V38.7366H188.415V39.3808H184.063Z" fill="white"/>
<path d="M42.4025 21.5271C42.4025 22.6089 42.4025 34.7545 42.3539 35.5373C42.2542 38.7244 42.1521 38.9043 38.9018 38.9043H36.602C36.2008 38.9043 35.9018 38.9651 35.9018 39.2665V40.7689C35.9018 41.1287 36.0525 41.2503 36.3029 41.2503C36.5509 41.2503 43.6034 41.0704 44.0532 41.0704C44.5029 41.0704 51.305 41.2503 51.7548 41.2503C52.1049 41.2503 52.2045 41.1287 52.2045 40.7689V39.3856C52.2045 39.0842 52.0538 38.9043 51.7062 38.9043H49.9047C46.6544 38.9043 46.4526 38.4837 46.404 35.3574C46.404 34.5746 46.353 21.8261 46.353 21.1065V18.5806C46.353 10.8231 46.5037 1.38084 46.5037 0.841147C46.5037 0.359797 46.4526 0 46.1536 0C45.9032 0 45.7039 0.179899 45.4535 0.359797L35.102 7.51441C34.7519 7.75509 34.7009 7.99576 34.803 8.23644L35.2017 9.31826C35.3014 9.55894 35.5031 9.55894 35.7025 9.50059L39.2032 8.11732C40.003 7.81586 40.7542 7.63597 41.204 7.63597C42.1521 7.63597 42.3539 8.95846 42.4025 11.003C42.4535 15.7533 42.4025 18.5806 42.4025 19.361V21.5271Z" fill="white"/>
<path d="M9.80204 21.5271C9.80204 22.6089 9.80204 34.7545 9.85309 35.5373C9.95277 38.7244 10.0524 38.9043 13.3028 38.9043H15.605C16.0037 38.9043 16.3051 38.9651 16.3051 39.2665V40.7689C16.3051 41.1287 16.1544 41.2503 15.904 41.2503C15.6536 41.2503 8.60353 41.0704 8.15135 41.0704C7.7016 41.0704 0.901924 41.2503 0.452178 41.2503C0.102105 41.2503 0 41.1287 0 40.7689V39.3856C0 39.0842 0.150726 38.9043 0.500799 38.9043H2.30222C5.55255 38.9043 5.75189 38.4837 5.80295 35.3574C5.80295 34.5746 5.85157 21.8261 5.85157 21.1065V18.5806C5.85157 10.8231 5.70084 1.38084 5.70084 0.841147C5.70084 0.359797 5.75189 0 6.05334 0C6.30131 0 6.50309 0.179899 6.75106 0.359797L17.105 7.51441C17.455 7.75509 17.5036 7.99576 17.404 8.23644L17.0053 9.31826C16.9032 9.55894 16.7038 9.55894 16.5045 9.50059L13.0038 8.11732C12.2039 7.81586 11.4527 7.63597 11.003 7.63597C10.0524 7.63597 9.85309 8.95846 9.80204 11.003C9.75342 15.7533 9.80204 18.5806 9.80204 19.361V21.5271Z" fill="white"/>
</svg>
