<svg width="34" height="41" viewBox="0 0 34 41" fill="none" xmlns="http://www.w3.org/2000/svg">
<path d="M14.6043 39.9139C15.5365 41.1164 17.2455 41.3879 18.4884 40.4569C18.6826 40.3018 18.8768 40.1078 19.0322 39.9139C22.1394 35.7635 28.0821 32.4664 33.6753 31.9621L30.1796 25.2904C30.1019 25.3292 30.063 25.3292 29.9854 25.368C23.965 28.8978 18.5272 31.807 16.8959 31.807C15.2646 31.807 9.6326 28.7814 3.53454 25.2129L0 31.9234C5.59312 32.4276 11.4193 35.7247 14.6043 39.9139Z" fill="#00A09D"/>
<path d="M16.8959 28.316C18.1388 28.0832 22.7221 25.6008 28.5482 22.1873L25.3633 16.1362C21.3626 18.3472 18.1 19.8988 16.8959 19.8988C15.6918 19.8988 12.3903 18.3084 8.35084 16.0974L5.16587 22.1873C11.0309 25.6008 15.6141 28.0832 16.8959 28.316Z" fill="#00A09D"/>
<path d="M16.8959 16.4078C17.7892 16.2526 20.275 14.9726 23.6931 13.0719L23.7319 13.0331L16.857 0L16.3133 0.930937L9.98215 12.9943C10.021 13.0331 10.0598 13.0719 10.0987 13.0719C13.5167 15.0114 16.0025 16.2526 16.8959 16.4078Z" fill="#00A09D"/>
</svg>

